<?xml version="1.0" encoding="UTF-8" standalone="no"?>
<svg
   xmlns:dc="http://purl.org/dc/elements/1.1/"
   xmlns:cc="http://creativecommons.org/ns#"
   xmlns:rdf="http://www.w3.org/1999/02/22-rdf-syntax-ns#"
   xmlns:svg="http://www.w3.org/2000/svg"
   xmlns="http://www.w3.org/2000/svg"
   xmlns:sodipodi="http://sodipodi.sourceforge.net/DTD/sodipodi-0.dtd"
   xmlns:inkscape="http://www.inkscape.org/namespaces/inkscape"
   inkscape:version="1.0 (4035a4fb49, 2020-05-01)"
   sodipodi:docname="toolbar_arrow.svg"
   xml:space="preserve"
   style="enable-background:new 0 0 330 330;"
   viewBox="0 0 330 330"
   y="0px"
   x="0px"
   id="Layer_1"
   version="1.1"><metadata
   id="metadata21"><rdf:RDF><cc:Work
       rdf:about=""><dc:format>image/svg+xml</dc:format><dc:type
         rdf:resource="http://purl.org/dc/dcmitype/StillImage" /><dc:title></dc:title></cc:Work></rdf:RDF></metadata><defs
   id="defs19" /><sodipodi:namedview
   inkscape:current-layer="Layer_1"
   inkscape:window-maximized="1"
   inkscape:window-y="-8"
   inkscape:window-x="-8"
   inkscape:cy="165"
   inkscape:cx="165"
   inkscape:zoom="3.0545455"
   showgrid="false"
   id="namedview17"
   inkscape:window-height="1377"
   inkscape:window-width="2560"
   inkscape:pageshadow="2"
   inkscape:pageopacity="0"
   guidetolerance="10"
   gridtolerance="10"
   objecttolerance="10"
   borderopacity="1"
   bordercolor="#666666"
   pagecolor="#ffffff" />
<style
   id="style2"
   type="text/css">
	.st0{display:none;}
	.st1{fill:none;stroke:#ED6B21;stroke-width:17.0079;stroke-linecap:round;stroke-miterlimit:10;}
</style>
<path
   d="M180,315V51.2l49.4,49.4c5.9,5.9,15.4,5.9,21.2,0c5.9-5.9,5.9-15.4,0-21.2l-75-75  c-5.9-5.9-15.4-5.9-21.2,0l-75,75C76.5,82.3,75,86.2,75,90s1.5,7.7,4.4,10.6c5.9,5.9,15.4,5.9,21.2,0L150,51.2V315  c0,8.3,6.7,15,15,15S180,323.3,180,315z"
   class="st0"
   id="XMLID_28_" />
<g
   transform="translate(0,-9.7960499)"
   id="XMLID_1_">
	<g
   id="g5">
	</g>
	<g
   id="g11">
		<polyline
   id="polyline7"
   points="113.6,84.5 164.3,18.3 164.3,18.3   "
   class="st1" />
		<polyline
   id="polyline9"
   points="216.4,84.5 164.3,18.3 164.3,18.3   "
   class="st1" />
	</g>
</g>
<line
   id="line14"
   y2="8.5039501"
   x2="164.3"
   y1="253.50394"
   x1="164.3"
   class="st1" />
<path
   id="path848"
   d="m 161.72619,261.42093 c -1.98978,-0.64379 -3.59047,-2.03885 -4.75803,-4.14679 l -0.97114,-1.75331 -0.16369,-111.03497 -0.16369,-111.034978 -18.2666,23.853114 c -17.91492,23.393873 -18.30248,23.870664 -20.1297,24.76464 -4.25485,2.081704 -9.30173,0.29484 -11.24412,-3.981014 -0.73267,-1.612852 -0.80176,-4.876254 -0.13693,-6.467421 0.36595,-0.875845 47.65595,-63.1048934 52.22383,-68.7214929 1.42332,-1.7500962 3.62433,-2.70636433 6.22618,-2.70507559 2.9089,0.00144 5.08638,1.18657139 7.14429,3.88838829 0.82717,1.0859897 12.6003,16.0813542 26.16251,33.3230302 13.56221,17.241679 25.13133,32.019223 25.70915,32.838985 0.90168,1.279215 1.06755,1.826314 1.17024,3.859769 0.19136,3.789532 -1.27931,6.409877 -4.4751,7.973428 -3.10077,1.517067 -6.84743,1.009198 -9.22444,-1.250398 -0.45256,-0.430205 -9.21818,-11.455152 -19.47917,-24.499881 l -18.65633,-23.71769 -0.16369,111.783166 c -0.13942,95.21296 -0.23191,111.90449 -0.62395,112.60162 -2.1819,3.87993 -6.31494,5.67729 -10.17962,4.42688 z"
   style="fill:#ed6b21;fill-opacity:1;stroke-width:0.327381" /><path
   id="path850"
   d="m 161.72619,261.42093 c -1.98978,-0.64379 -3.59047,-2.03885 -4.75803,-4.14679 l -0.97114,-1.75331 -0.16369,-111.01999 -0.16369,-111.019993 -4.92334,6.421781 c -2.70783,3.531975 -10.92912,14.259781 -18.26953,23.839563 -12.61775,16.467108 -13.43902,17.462353 -15.0469,18.234301 -2.41431,1.159115 -3.79384,1.330031 -5.86809,0.727031 -3.9486,-1.147889 -6.14511,-4.027333 -6.14511,-8.055722 0,-1.420932 0.19858,-2.547669 0.58131,-3.29839 0.31973,-0.627121 9.4281,-12.701798 20.24084,-26.832614 10.81273,-14.130815 22.1877,-29.007124 25.27771,-33.058464 3.09001,-4.051339 6.05742,-7.9031703 6.59424,-8.5596249 2.23599,-2.73427987 6.68828,-3.54782938 10.02843,-1.8324565 1.43055,0.7346793 2.38197,1.7722808 6.73274,7.3425832 2.78671,3.5678492 14.91231,19.0059422 26.94577,34.3068722 12.03346,15.300932 22.0785,28.297317 22.32232,28.880854 0.58283,1.394915 0.56602,4.737906 -0.031,6.166803 -1.91806,4.590559 -7.30546,6.572454 -11.56461,4.254335 -1.54833,-0.842705 -3.44821,-3.143194 -20.77755,-25.158617 L 172.69345,32.627984 172.52976,144.40179 c -0.13942,95.20492 -0.23191,111.89513 -0.62395,112.59226 -2.1819,3.87993 -6.31494,5.67729 -10.17962,4.42688 z"
   style="fill:#ed6b21;fill-opacity:1;stroke-width:0.327381" /><path
   id="path852"
   d="m 161.72619,261.42093 c -2.00067,-0.64732 -3.77242,-2.19004 -4.84014,-4.21447 l -0.88903,-1.68563 -0.16369,-110.98214 -0.16369,-110.982142 -3.28807,4.255952 c -1.80845,2.340774 -5.43029,7.05506 -8.04855,10.47619 -13.21307,17.264775 -23.41991,30.570601 -24.26679,31.634632 -1.98634,2.49569 -5.52147,3.647377 -8.51999,2.775683 -3.93264,-1.14325 -6.12957,-4.028927 -6.12957,-8.051204 0,-1.422788 0.19853,-2.547581 0.58265,-3.301005 0.32046,-0.628562 11.39832,-15.281364 24.61748,-32.561781 13.21915,-17.280419 24.89809,-32.5639526 25.9532,-33.9634082 2.81867,-3.7386009 5.45535,-5.14565225 8.72394,-4.65549665 3.09103,0.46352792 4.23754,1.38347995 8.4454,6.77652545 2.14856,2.753723 13.95909,17.7929484 26.24562,33.4204994 12.28652,15.627552 22.80821,29.079204 23.38151,29.892559 0.90006,1.276923 1.0592,1.812112 1.16565,3.92002 0.10794,2.137621 0.0126,2.667464 -0.76695,4.260745 -1.04955,2.145203 -2.76576,3.522505 -5.31141,4.262546 -2.12205,0.616894 -3.89081,0.392549 -6.04809,-0.767126 -1.63599,-0.879446 -0.89552,0.03104 -28.92147,-35.561592 L 172.69345,32.66617 172.52976,144.42088 c -0.13942,95.18852 -0.23191,111.87604 -0.62395,112.57317 -2.1819,3.87993 -6.31494,5.67729 -10.17962,4.42688 z"
   style="fill:#ed6b21;fill-opacity:1;stroke-width:0.327381" /></svg>
